<svg width="80" height="80" viewBox="0 0 80 80" fill="none" xmlns="http://www.w3.org/2000/svg">
<g clip-path="url(#clip0_103_32)">
<path d="M77.1411 19.3433C78.7211 19.3433 80.005 20.6273 80.005 22.2073V67.7031C80.005 68.5751 79.6131 69.3911 78.9291 69.9391C78.2411 70.4831 77.3571 70.6871 76.5011 70.4911C69.6451 68.9271 57.6091 67.1112 46.1931 69.9072C52.7971 63.6592 62.113 62.5552 67.765 62.5392C71.793 62.5312 75.065 59.2551 75.065 55.2352V19.3433H77.1411ZM4.94093 19.3433V55.2352C4.94093 59.2551 8.21698 62.5312 12.241 62.5392C17.893 62.5552 27.213 63.6592 33.813 69.9072C22.401 67.1112 10.3649 68.9271 3.50892 70.4911C2.64891 70.6871 1.76494 70.4831 1.08093 69.9351C0.396933 69.3911 0.00488281 68.5751 0.00488281 67.6991V22.2073C0.00488281 20.6273 1.28899 19.3433 2.86499 19.3433H4.94093ZM12.241 9.4433C18.921 9.4593 31.069 11.0073 37.389 21.1873C37.645 21.6033 37.7809 22.1033 37.7809 22.6353V67.5591C30.0809 59.4992 18.917 58.1112 12.2529 58.0952C10.6729 58.0912 9.38893 56.8072 9.38893 55.2352V12.3073C9.38893 11.5393 9.6849 10.8193 10.2289 10.2753C10.7649 9.7393 11.477 9.4433 12.237 9.4433H12.241ZM67.773 9.4433C68.529 9.4433 69.241 9.7393 69.781 10.2753C70.321 10.8193 70.6211 11.5393 70.6211 12.3073V55.2352C70.6211 56.8072 69.3371 58.0912 67.7571 58.0952C61.093 58.1112 49.929 59.4992 42.225 67.5591V22.6353C42.225 22.1033 42.365 21.6033 42.621 21.1873C48.941 11.0073 61.089 9.4593 67.769 9.4433H67.773Z" fill="url(#paint0_linear_103_32)"/>
</g>
<defs>
<linearGradient id="paint0_linear_103_32" x1="40.0049" y1="9.4433" x2="40.0049" y2="70.5641" gradientUnits="userSpaceOnUse">
<stop stop-color="#76A5FF"/>
<stop offset="0.0001" stop-color="#55BAFF"/>
<stop offset="1" stop-color="#028CEB"/>
</linearGradient>
<clipPath id="clip0_103_32">
<rect width="80" height="80" fill="white"/>
</clipPath>
</defs>
</svg>
