<svg xmlns="http://www.w3.org/2000/svg" width="49" height="49" fill="none" viewBox="0 0 49 49">
  <g clip-path="url(#a)">
    <mask id="b" width="49" height="49" x="0" y="0" maskUnits="userSpaceOnUse" style="mask-type:luminance">
      <path fill="#fff" d="M.5.5h48v48H.5V.5Z"/>
    </mask>
    <g mask="url(#b)">
      <path fill="url(#c)" d="M46.785 12.106a1.72 1.72 0 0 1 1.718 1.718v27.298a1.714 1.714 0 0 1-2.102 1.673c-4.114-.939-11.336-2.028-18.186-.35 3.963-3.75 9.552-4.412 12.944-4.422a4.391 4.391 0 0 0 4.38-4.382V12.106h1.246Zm-43.32 0v21.535a4.392 4.392 0 0 0 4.38 4.382c3.39.01 8.982.672 12.943 4.421-6.848-1.677-14.069-.588-18.183.35a1.71 1.71 0 0 1-1.456-.333 1.705 1.705 0 0 1-.646-1.342V13.825a1.72 1.72 0 0 1 1.716-1.719h1.245Zm4.38-5.94c4.008.01 11.296.938 15.088 7.046.154.25.236.55.236.869v26.955c-4.62-4.837-11.319-5.67-15.318-5.679a1.722 1.722 0 0 1-1.717-1.716V7.885a1.71 1.71 0 0 1 1.708-1.719h.003Zm33.319 0a1.7 1.7 0 0 1 1.205.499c.324.326.504.758.504 1.22V33.64a1.722 1.722 0 0 1-1.718 1.716c-4 .01-10.698.842-15.32 5.678V14.081c0-.319.084-.619.238-.868 3.792-6.108 11.08-7.038 15.088-7.047h.002Z"/>
    </g>
  </g>
  <defs>
    <linearGradient id="c" x1="24.503" x2="24.503" y1="6.166" y2="42.838" gradientUnits="userSpaceOnUse">
      <stop stop-color="#55BAFF"/>
      <stop offset="1" stop-color="#028CEB"/>
    </linearGradient>
    <clipPath id="a">
      <path fill="#fff" d="M.5.5h48v48H.5z"/>
    </clipPath>
  </defs>
</svg>
